<svg id="Vrstva_1" data-name="Vrstva 1" xmlns="http://www.w3.org/2000/svg" xmlns:xlink="http://www.w3.org/1999/xlink" viewBox="0 0 443.9 111.63"><defs><style>.cls-1,.cls-7{fill:none;}.cls-2{clip-path:url(#clip-path);}.cls-3,.cls-6{fill:#27348b;}.cls-4{fill:#009fe3;}.cls-5{fill:#d77c12;}.cls-6{font-size:13.95px;font-family:Cocogoose-Light, Cocogoose;}.cls-7{stroke:#27348b;stroke-width:1.09px;}</style><clipPath id="clip-path" transform="translate(-197 -241.65)"><rect class="cls-1" x="197" y="241.65" width="447.19" height="111.63"/></clipPath></defs><title>logo MBE</title><g class="cls-2"><path class="cls-3" d="M538.85,350.31a2.68,2.68,0,0,0,.92,2.27,3.5,3.5,0,0,0,2.2.71H612.1q3.12,0,3.12-3V337.35a4.39,4.39,0,0,0-.64-2.63,3.15,3.15,0,0,0-2.62-.85H559.75V308.15h39a2.59,2.59,0,0,0,2.27-1,3.8,3.8,0,0,0,.71-2.27V292.07a3.2,3.2,0,0,0-.85-2.51,2.86,2.86,0,0,0-2.27-.6H559.75V267.49h50.37a3.37,3.37,0,0,0,2.66-1,3.33,3.33,0,0,0,.89-2.28V251.71a4.19,4.19,0,0,0-.78-2.6,3.08,3.08,0,0,0-2.62-1H542q-3.12,0-3.12,3.4ZM503.5,283.11a12.38,12.38,0,0,1-6.88,6.84,13.68,13.68,0,0,1-5.25,1h-23V265.3h23.21a13.87,13.87,0,0,1,5.22,1,11.89,11.89,0,0,1,6.74,6.69,13.72,13.72,0,0,1,0,10.17m4.75,43.28a14.9,14.9,0,0,1-2.38,4.29,13.94,13.94,0,0,1-3.58,3.19,11.59,11.59,0,0,1-4.47,1.63,23.42,23.42,0,0,1-2.84.39q-1.42.1-2.91.11h-23.7V307.23h23.7a24.37,24.37,0,0,1,2.95.18q1.45.18,2.87.39a13,13,0,0,1,4.47,1.66,13.48,13.48,0,0,1,3.55,3.08,14.63,14.63,0,0,1,2.34,4.14,13.48,13.48,0,0,1,.85,4.71,14.67,14.67,0,0,1-.85,5m-60.35,23.84a2.84,2.84,0,0,0,.88,2.3,3.46,3.46,0,0,0,2.3.74h48.74a28.21,28.21,0,0,0,11.83-2.52,30.29,30.29,0,0,0,9.6-6.84,33,33,0,0,0,6.45-10,30.7,30.7,0,0,0,2.37-12,29,29,0,0,0-.93-7.33,31.34,31.34,0,0,0-2.62-6.76,33.36,33.36,0,0,0-4-6,30.3,30.3,0,0,0-5.24-4.89A27.68,27.68,0,0,0,525,277.62a29.28,29.28,0,0,0-8.6-21,29.77,29.77,0,0,0-9.41-6.27,29.27,29.27,0,0,0-11.57-2.3H451.07q-3.18,0-3.18,3.33Zm-129.78-.07q0,3.12,3.12,3.12H335q3.26,0,3.26-3.12l7.23-66.94q6,16.44,11.83,32.59T369,348.32a4.91,4.91,0,0,0,1.13,1.88,2.32,2.32,0,0,0,1.7.82h12.75a2.23,2.23,0,0,0,1.63-.85,5.43,5.43,0,0,0,1.13-1.84l23.59-65.17,7.23,67q.14,3.12,3.33,3.12h13.74q3.12,0,3.12-2.9v-.21q-2.69-24.79-5.38-49.45t-5.31-49.52a3.35,3.35,0,0,0-1-2.2,3.05,3.05,0,0,0-2.3-.92H406.59q-2.27,0-3.26,2.69-6.23,17.57-12.57,34.85t-12.65,34.85l-25-69.71a3.22,3.22,0,0,0-3.26-2.69H332.14a3.23,3.23,0,0,0-2.34.89,3.5,3.5,0,0,0-1.06,2.23Z" transform="translate(-197 -241.65)"/><path class="cls-3" d="M199.68,250.9a2.63,2.63,0,0,0-2.68,2.68v19.67a2.63,2.63,0,0,0,2.68,2.68h100a2.63,2.63,0,0,0,2.68-2.68V253.58a2.63,2.63,0,0,0-2.68-2.68Z" transform="translate(-197 -241.65)"/><path class="cls-4" d="M199.68,288.24a2.63,2.63,0,0,0-2.68,2.68V310.6a2.63,2.63,0,0,0,2.68,2.68h100a2.63,2.63,0,0,0,2.68-2.68V290.93a2.63,2.63,0,0,0-2.68-2.68Z" transform="translate(-197 -241.65)"/><path class="cls-5" d="M199.68,325.59a2.63,2.63,0,0,0-2.68,2.68v19.67a2.63,2.63,0,0,0,2.68,2.68h100a2.63,2.63,0,0,0,2.68-2.68V328.27a2.63,2.63,0,0,0-2.68-2.68Z" transform="translate(-197 -241.65)"/><text class="cls-6" transform="translate(430.38 13.51)">R</text><circle class="cls-7" cx="435.17" cy="8.73" r="8.18"/></g></svg>